<?xml version="1.0" encoding="utf-8"?>
<svg version="1.1" xmlns:xlink="http://www.w3.org/1999/xlink" width="100px" height="40px" xmlns="http://www.w3.org/2000/svg">
  <defs>
    <mask fill="white" id="clip40">
      <path d="M 0 35  L 0 5  C 0 2.2  1.5714285714286 0  3.57142857142857 0  L 52.2077922077922 0  L 96.4285714285714 0  C 98.4285714285714 0  100 2.2  100 5  L 100 35  C 100 37.8  98.4285714285714 40  96.4285714285714 40  L 53.8311688311688 40  L 3.57142857142857 40  C 1.5714285714286 40  0 37.8  0 35  Z " fill-rule="evenodd" />
    </mask>
  </defs>
  <g transform="matrix(1 0 0 1 -770 -121 )">
    <path d="M 0 35  L 0 5  C 0 2.2  1.5714285714286 0  3.57142857142857 0  L 52.2077922077922 0  L 96.4285714285714 0  C 98.4285714285714 0  100 2.2  100 5  L 100 35  C 100 37.8  98.4285714285714 40  96.4285714285714 40  L 53.8311688311688 40  L 3.57142857142857 40  C 1.5714285714286 40  0 37.8  0 35  Z " fill-rule="nonzero" fill="#ffffff" stroke="none" transform="matrix(1 0 0 1 770 121 )" />
    <path d="M 0 35  L 0 5  C 0 2.2  1.5714285714286 0  3.57142857142857 0  L 52.2077922077922 0  L 96.4285714285714 0  C 98.4285714285714 0  100 2.2  100 5  L 100 35  C 100 37.8  98.4285714285714 40  96.4285714285714 40  L 53.8311688311688 40  L 3.57142857142857 40  C 1.5714285714286 40  0 37.8  0 35  Z " stroke-width="2" stroke="#797979" fill="none" transform="matrix(1 0 0 1 770 121 )" mask="url(#clip40)" />
  </g>
</svg>